<svg width="11" height="7" viewBox="0 0 11 7" fill="none" xmlns="http://www.w3.org/2000/svg">
<path fill-rule="evenodd" clip-rule="evenodd" d="M9.95204 5.96558C9.76451 6.15305 9.5102 6.25836 9.24504 6.25836C8.97987 6.25836 8.72556 6.15305 8.53804 5.96558L5.24504 2.67257L1.95204 5.96558C1.76343 6.14773 1.51083 6.24853 1.24863 6.24625C0.986438 6.24397 0.735626 6.1388 0.550218 5.95339C0.36481 5.76799 0.25964 5.51717 0.257362 5.25498C0.255084 4.99278 0.355878 4.74018 0.538036 4.55158L4.53804 0.551576C4.72556 0.364105 4.97987 0.258789 5.24504 0.258789C5.5102 0.258789 5.76451 0.364105 5.95204 0.551576L9.95204 4.55158C10.1395 4.7391 10.2448 4.99341 10.2448 5.25858C10.2448 5.52374 10.1395 5.77805 9.95204 5.96558Z" fill="black"/>
</svg>
