<svg width="20" height="18" viewBox="0 0 20 18" fill="none" xmlns="http://www.w3.org/2000/svg">
<path d="M7.60002 7.80001C8.5548 7.80001 9.47048 7.42072 10.1456 6.74559C10.8207 6.07046 11.2 5.15479 11.2 4.20001C11.2 3.24523 10.8207 2.32955 10.1456 1.65442C9.47048 0.979291 8.5548 0.600006 7.60002 0.600006C6.64525 0.600006 5.72957 0.979291 5.05444 1.65442C4.37931 2.32955 4.00002 3.24523 4.00002 4.20001C4.00002 5.15479 4.37931 6.07046 5.05444 6.74559C5.72957 7.42072 6.64525 7.80001 7.60002 7.80001ZM7.60002 10.2C9.50958 10.2 11.3409 10.9586 12.6912 12.3088C14.0415 13.6591 14.8 15.4904 14.8 17.4H0.400024C0.400024 15.4904 1.15859 13.6591 2.50886 12.3088C3.85912 10.9586 5.69047 10.2 7.60002 10.2ZM17.2 5.40001C17.2 5.08175 17.0736 4.77652 16.8486 4.55148C16.6235 4.32643 16.3183 4.20001 16 4.20001C15.6818 4.20001 15.3765 4.32643 15.1515 4.55148C14.9265 4.77652 14.8 5.08175 14.8 5.40001V6.60001H13.6C13.2818 6.60001 12.9765 6.72643 12.7515 6.95148C12.5265 7.17652 12.4 7.48175 12.4 7.80001C12.4 8.11827 12.5265 8.42349 12.7515 8.64853C12.9765 8.87358 13.2818 9.00001 13.6 9.00001H14.8V10.2C14.8 10.5183 14.9265 10.8235 15.1515 11.0485C15.3765 11.2736 15.6818 11.4 16 11.4C16.3183 11.4 16.6235 11.2736 16.8486 11.0485C17.0736 10.8235 17.2 10.5183 17.2 10.2V9.00001H18.4C18.7183 9.00001 19.0235 8.87358 19.2486 8.64853C19.4736 8.42349 19.6 8.11827 19.6 7.80001C19.6 7.48175 19.4736 7.17652 19.2486 6.95148C19.0235 6.72643 18.7183 6.60001 18.4 6.60001H17.2V5.40001Z" fill="#FD713A"/>
</svg>
