<svg width="77" height="36" viewBox="0 0 77 36" fill="none" xmlns="http://www.w3.org/2000/svg">
<path d="M14.2756 14C14.3395 13.2969 14.169 12.7464 13.7642 12.3487C13.3594 11.9439 12.6776 11.7415 11.7188 11.7415C11.108 11.7415 10.5966 11.8125 10.1847 11.9545C9.77983 12.0966 9.46378 12.2919 9.23651 12.5405C9.01634 12.7891 8.87784 13.0767 8.82102 13.4034C8.7571 13.6591 8.76065 13.8935 8.83168 14.1065C8.9098 14.3125 9.0554 14.5007 9.26847 14.6712C9.48864 14.8416 9.77628 14.9943 10.1314 15.1293C10.4936 15.2642 10.9233 15.3849 11.4205 15.4915L13.125 15.875C14.2898 16.1307 15.2663 16.468 16.0547 16.8871C16.8501 17.299 17.4751 17.7891 17.9297 18.3572C18.3842 18.9254 18.6825 19.5611 18.8246 20.2642C18.9737 20.9673 18.9773 21.7344 18.8352 22.5653C18.5938 24 18.0362 25.2145 17.1626 26.2088C16.2891 27.2031 15.1491 27.9595 13.7429 28.478C12.3366 28.9964 10.7102 29.2557 8.86364 29.2557C6.97443 29.2557 5.36932 28.9751 4.0483 28.4141C2.73438 27.8459 1.78267 26.9794 1.19318 25.8146C0.610795 24.6428 0.46875 23.1477 0.767046 21.3295H6.39205C6.30682 21.9972 6.37784 22.5582 6.60511 23.0128C6.83239 23.4673 7.19815 23.8118 7.70241 24.0462C8.20668 24.2805 8.83523 24.3977 9.58807 24.3977C10.2273 24.3977 10.7741 24.3196 11.2287 24.1634C11.6832 24.0071 12.0419 23.7905 12.3047 23.5135C12.5675 23.2365 12.7273 22.9205 12.7841 22.5653C12.8409 22.2386 12.7841 21.9474 12.6136 21.6918C12.4432 21.4361 12.1342 21.2053 11.6868 20.9993C11.2393 20.7933 10.625 20.6051 9.84375 20.4347L7.75568 19.9659C5.90199 19.5398 4.50284 18.8366 3.55824 17.8565C2.61364 16.8764 2.27983 15.5341 2.55682 13.8295C2.78409 12.4375 3.35582 11.223 4.27202 10.1861C5.19531 9.14204 6.36719 8.33239 7.78764 7.7571C9.2152 7.17472 10.7955 6.88352 12.5284 6.88352C14.2898 6.88352 15.7635 7.17827 16.9496 7.76776C18.1428 8.35724 18.9986 9.18466 19.517 10.25C20.0426 11.3153 20.1847 12.5653 19.9432 14H14.2756ZM42.9066 18.4744C42.5089 20.8466 41.7205 22.8352 40.5415 24.4403C39.3626 26.0455 37.9315 27.2564 36.2482 28.0732C34.565 28.8899 32.7646 29.2983 30.8469 29.2983C28.8015 29.2983 27.0259 28.8544 25.5202 27.9666C24.0146 27.0788 22.9173 25.7791 22.2283 24.0675C21.5394 22.3558 21.4009 20.2642 21.8129 17.7926C22.1964 15.4205 22.9776 13.4247 24.1566 11.8054C25.3356 10.1861 26.7738 8.96094 28.4712 8.12997C30.1687 7.29901 31.9833 6.88352 33.9151 6.88352C35.9464 6.88352 37.7113 7.33097 39.2099 8.22585C40.7156 9.12074 41.8093 10.4311 42.4911 12.157C43.18 13.8828 43.3185 15.9886 42.9066 18.4744ZM36.9407 17.7926C37.1396 16.5426 37.1538 15.4915 36.9833 14.6392C36.8129 13.7798 36.4542 13.1335 35.9073 12.7003C35.3604 12.2599 34.6254 12.0398 33.7021 12.0398C32.6509 12.0398 31.7205 12.2955 30.9109 12.8068C30.1012 13.3182 29.43 14.0533 28.8974 15.0121C28.3647 15.9709 27.9918 17.125 27.7788 18.4744C27.5515 19.7386 27.5302 20.7898 27.7148 21.6278C27.9066 22.4659 28.283 23.0945 28.8441 23.5135C29.4123 23.9325 30.1509 24.142 31.06 24.142C32.0969 24.142 33.0131 23.8935 33.8086 23.3963C34.6112 22.8991 35.2752 22.1783 35.8008 21.2337C36.3335 20.2891 36.7134 19.142 36.9407 17.7926ZM58.3034 32.7074C55.9739 32.7074 53.9462 32.3913 52.2203 31.7592C50.4945 31.1342 49.0918 30.218 48.0123 29.0107C46.9327 27.8033 46.2012 26.3366 45.8176 24.6108C45.4341 22.8849 45.4199 20.9247 45.775 18.7301C46.1444 16.5426 46.8155 14.5433 47.7885 12.7322C48.7615 10.9141 50.0044 9.34446 51.5172 8.02344C53.0371 6.69531 54.802 5.66903 56.812 4.9446C58.829 4.22017 61.0591 3.85795 63.5023 3.85795C65.704 3.85795 67.6394 4.1598 69.3084 4.76349C70.9846 5.36008 72.3553 6.24077 73.4206 7.40554C74.4931 8.56321 75.2246 9.98722 75.6152 11.6776C76.0059 13.3679 76.0165 15.3068 75.6472 17.4943C75.4057 18.9858 75.0328 20.2926 74.5286 21.4148C74.0314 22.5298 73.4064 23.4709 72.6536 24.2379C71.9078 25.005 71.0449 25.6016 70.0648 26.0277C69.0918 26.4538 68.0123 26.7202 66.8262 26.8267C65.7679 26.9261 65.0293 26.8764 64.6103 26.6776C64.1912 26.4787 63.9462 26.1946 63.8752 25.8253C63.8042 25.456 63.7651 25.0653 63.758 24.6534H63.6301C63.3958 25.0937 62.9519 25.4773 62.2985 25.804C61.6451 26.1307 60.8993 26.3757 60.0613 26.5391C59.2232 26.7024 58.41 26.7557 57.6216 26.6989C56.8475 26.642 56.0946 26.4538 55.3631 26.1342C54.6387 25.8146 54.003 25.3352 53.4561 24.696C52.9093 24.0568 52.5222 23.2365 52.2949 22.2351C52.0676 21.2266 52.0676 20.0156 52.2949 18.6023C52.5364 17.1818 52.9306 15.9744 53.4775 14.9801C54.0314 13.9858 54.6671 13.1655 55.3844 12.5192C56.1088 11.8729 56.8546 11.3757 57.6216 11.0277C58.3958 10.6797 59.1202 10.4489 59.7949 10.3352C60.6827 10.179 61.5208 10.1612 62.3091 10.282C63.0975 10.3956 63.7544 10.5909 64.28 10.8679C64.8056 11.1378 65.1145 11.429 65.2069 11.7415H65.3773L65.5478 10.5483H69.5961L67.8063 21.4574C67.7566 21.8835 67.785 22.1676 67.8915 22.3097C67.998 22.4517 68.1401 22.5227 68.3176 22.5227C68.6515 22.5227 68.9995 22.331 69.3617 21.9474C69.7239 21.5568 70.0613 20.9638 70.3738 20.1683C70.6863 19.3658 70.9384 18.3466 71.1301 17.1108C71.4 15.5199 71.4142 14.1918 71.1728 13.1264C70.9384 12.054 70.5265 11.1946 69.937 10.5483C69.3475 9.89489 68.6479 9.40483 67.8382 9.07812C67.0357 8.74432 66.1905 8.52415 65.3027 8.41761C64.4221 8.30398 63.5804 8.24716 62.7779 8.24716C60.9384 8.24716 59.312 8.52415 57.8986 9.07812C56.4853 9.625 55.2743 10.3778 54.2658 11.3366C53.2644 12.2884 52.4583 13.3786 51.8475 14.6072C51.2367 15.8288 50.8176 17.1179 50.5904 18.4744C50.3276 20.0724 50.324 21.4822 50.5797 22.7038C50.8354 23.9254 51.3397 24.9482 52.0925 25.772C52.8453 26.5959 53.8326 27.2209 55.0542 27.647C56.2828 28.0661 57.7353 28.2756 59.4114 28.2756C60.2566 28.2756 61.0804 28.2294 61.883 28.1371C62.6926 28.0376 63.4419 27.9098 64.1309 27.7536C64.8269 27.5902 65.427 27.4091 65.9313 27.2102L66.6557 31.0455C66.1515 31.3438 65.4732 31.6172 64.6209 31.8658C63.7757 32.1214 62.8098 32.3239 61.7232 32.473C60.6436 32.6293 59.5037 32.7074 58.3034 32.7074ZM60.0506 22.3097C60.8674 22.3097 61.5314 22.1605 62.0428 21.8622C62.5613 21.5568 62.959 21.1165 63.236 20.5412C63.5201 19.9588 63.7225 19.2557 63.8432 18.4318C63.9355 17.8068 63.9498 17.2244 63.8858 16.6847C63.829 16.1378 63.5982 15.6974 63.1934 15.3636C62.7956 15.0227 62.1316 14.8523 61.2012 14.8523C60.427 14.8523 59.7488 14.9908 59.1664 15.2678C58.584 15.5376 58.1081 15.9425 57.7388 16.4822C57.3695 17.0149 57.1174 17.679 56.9824 18.4744C56.8759 19.1278 56.8865 19.7493 57.0144 20.3388C57.1493 20.9212 57.4547 21.397 57.9306 21.7663C58.4135 22.1286 59.1202 22.3097 60.0506 22.3097Z" fill="#E2E2E2"/>
</svg>
