<svg width="8" height="8" viewBox="0 0 8 8" fill="none" xmlns="http://www.w3.org/2000/svg">
<path fill-rule="evenodd" clip-rule="evenodd" d="M4 8C5.06087 8 6.07828 7.57857 6.82843 6.82843C7.57857 6.07828 8 5.06087 8 4C8 2.93913 7.57857 1.92172 6.82843 1.17157C6.07828 0.421427 5.06087 0 4 0C2.93913 0 1.92172 0.421427 1.17157 1.17157C0.421427 1.92172 0 2.93913 0 4C0 5.06087 0.421427 6.07828 1.17157 6.82843C1.92172 7.57857 2.93913 8 4 8ZM4.5 2.5C4.5 2.36739 4.44732 2.24021 4.35355 2.14645C4.25979 2.05268 4.13261 2 4 2C3.86739 2 3.74021 2.05268 3.64645 2.14645C3.55268 2.24021 3.5 2.36739 3.5 2.5V3.5H2.5C2.36739 3.5 2.24021 3.55268 2.14645 3.64645C2.05268 3.74021 2 3.86739 2 4C2 4.13261 2.05268 4.25979 2.14645 4.35355C2.24021 4.44732 2.36739 4.5 2.5 4.5H3.5V5.5C3.5 5.63261 3.55268 5.75979 3.64645 5.85355C3.74021 5.94732 3.86739 6 4 6C4.13261 6 4.25979 5.94732 4.35355 5.85355C4.44732 5.75979 4.5 5.63261 4.5 5.5V4.5H5.5C5.63261 4.5 5.75979 4.44732 5.85355 4.35355C5.94732 4.25979 6 4.13261 6 4C6 3.86739 5.94732 3.74021 5.85355 3.64645C5.75979 3.55268 5.63261 3.5 5.5 3.5H4.5V2.5Z" fill="#FC4C13"/>
</svg>
