<svg width="20" height="20" viewBox="0 0 20 20" fill="none" xmlns="http://www.w3.org/2000/svg">
<path fill-rule="evenodd" clip-rule="evenodd" d="M7.60002 2.8C6.32698 2.8 5.10609 3.30571 4.20591 4.20589C3.30574 5.10606 2.80002 6.32696 2.80002 7.6C2.80002 8.87304 3.30574 10.0939 4.20591 10.9941C5.10609 11.8943 6.32698 12.4 7.60002 12.4C8.87306 12.4 10.094 11.8943 10.9941 10.9941C11.8943 10.0939 12.4 8.87304 12.4 7.6C12.4 6.32696 11.8943 5.10606 10.9941 4.20589C10.094 3.30571 8.87306 2.8 7.60002 2.8ZM0.400025 7.6C0.39988 6.46684 0.667195 5.34965 1.18023 4.33929C1.69326 3.32892 2.43753 2.45392 3.3525 1.78543C4.26747 1.11694 5.3273 0.673853 6.4458 0.492198C7.5643 0.310543 8.70988 0.395451 9.78938 0.740018C10.8689 1.08459 11.8518 1.67908 12.6582 2.47515C13.4646 3.27123 14.0718 4.2464 14.4302 5.32136C14.7887 6.39632 14.8884 7.54071 14.7212 8.66146C14.554 9.78221 14.1246 10.8477 13.468 11.7712L19.2484 17.5516C19.467 17.7779 19.588 18.081 19.5852 18.3957C19.5825 18.7103 19.4563 19.0113 19.2338 19.2338C19.0113 19.4563 18.7103 19.5825 18.3957 19.5852C18.0811 19.5879 17.7779 19.467 17.5516 19.2484L11.7724 13.4692C10.6953 14.2351 9.42804 14.6898 8.10964 14.7833C6.79123 14.8769 5.47251 14.6057 4.29798 13.9996C3.12346 13.3934 2.13845 12.4756 1.45089 11.3468C0.763337 10.218 0.399768 8.92172 0.400025 7.6Z" fill="#FC4C13"/>
</svg>
