<svg width="31" height="31" viewBox="0 0 31 31" fill="none" xmlns="http://www.w3.org/2000/svg">
<path d="M10.4745 17.4195C10.7761 16.8175 10.9459 16.138 10.9459 15.4188C10.9459 14.6995 10.7761 14.0201 10.4745 13.418M10.4745 17.4195C9.74016 18.8855 8.22406 19.8917 6.47293 19.8917C4.0026 19.8917 2 17.8892 2 15.4188C2 12.9484 4.0026 10.9459 6.47293 10.9459C8.22406 10.9459 9.74016 11.9521 10.4745 13.418M10.4745 17.4195L20.363 22.3639M10.4745 13.418L20.363 8.47371M20.363 22.3639C20.0614 22.966 19.8917 23.6454 19.8917 24.3646C19.8917 26.835 21.8942 28.8376 24.3646 28.8376C26.835 28.8376 28.8376 26.835 28.8376 24.3646C28.8376 21.8942 26.835 19.8917 24.3646 19.8917C22.6135 19.8917 21.0975 20.898 20.363 22.3639ZM20.363 8.47371C21.0975 9.93957 22.6135 10.9459 24.3646 10.9459C26.835 10.9459 28.8376 8.94325 28.8376 6.47293C28.8376 4.0026 26.835 2 24.3646 2C21.8942 2 19.8917 4.0026 19.8917 6.47293C19.8917 7.19213 20.0614 7.87169 20.363 8.47371Z" stroke="#FC4C13" stroke-width="3" stroke-linecap="round" stroke-linejoin="round"/>
</svg>
