<svg width="12" height="11" viewBox="0 0 12 11" fill="none" xmlns="http://www.w3.org/2000/svg">
<path d="M5.23196 0.533567C5.47408 -0.177856 6.52571 -0.177856 6.76703 0.533567L7.6306 3.07646C7.68337 3.23133 7.78593 3.36626 7.92363 3.46199C8.06134 3.55772 8.22714 3.60933 8.39733 3.60945H11.1914C11.9735 3.60945 12.298 4.56728 11.666 5.00757L9.40618 6.57873C9.2682 6.67453 9.16545 6.8097 9.11268 6.96484C9.0599 7.11998 9.05981 7.28713 9.11241 7.44232L9.97598 9.98522C10.2181 10.6966 9.36664 11.2891 8.73308 10.8488L6.47325 9.27765C6.33541 9.18187 6.16943 9.13029 5.99909 9.13029C5.82875 9.13029 5.66277 9.18187 5.52493 9.27765L3.2651 10.8488C2.63235 11.2891 1.78169 10.6966 2.023 9.98522L2.88658 7.44232C2.93918 7.28713 2.93909 7.11998 2.88631 6.96484C2.83354 6.8097 2.73079 6.67453 2.5928 6.57873L0.333783 5.00835C-0.298162 4.56805 0.0270921 3.61022 0.808347 3.61022H3.60165C3.77199 3.61026 3.93797 3.55873 4.07583 3.46299C4.2137 3.36725 4.31639 3.23222 4.36919 3.07723L5.23196 0.533567Z" fill="#FC4C13"/>
</svg>
