<svg width="36" height="36" viewBox="0 0 36 36" fill="none" xmlns="http://www.w3.org/2000/svg">
<path d="M22.5 7.5V10.5M22.5 16.5V19.5M22.5 25.5V28.5M7.5 7.5C5.84315 7.5 4.5 8.84315 4.5 10.5V15C6.15685 15 7.5 16.3431 7.5 18C7.5 19.6569 6.15685 21 4.5 21V25.5C4.5 27.1569 5.84315 28.5 7.5 28.5H28.5C30.1569 28.5 31.5 27.1569 31.5 25.5V21C29.8431 21 28.5 19.6569 28.5 18C28.5 16.3431 29.8431 15 31.5 15V10.5C31.5 8.84315 30.1569 7.5 28.5 7.5H7.5Z" stroke="#111827" stroke-width="2" stroke-linecap="round" stroke-linejoin="round"/>
</svg>
